<?xml version="1.0" standalone="no"?>
<!DOCTYPE svg PUBLIC "-//W3C//DTD SVG 20010904//EN"
 "http://www.w3.org/TR/2001/REC-SVG-20010904/DTD/svg10.dtd">
<svg version="1.0" xmlns="http://www.w3.org/2000/svg"
 width="45.000000pt" height="50.000000pt" viewBox="0 0 45.000000 50.000000"
 preserveAspectRatio="xMidYMid meet">

<g transform="translate(0.000000,50.000000) scale(0.100000,-0.100000)"
fill="#000000" stroke="none">
<path d="M362 470 c-7 -12 -24 -25 -37 -30 -29 -11 -34 -45 -9 -54 9 -4 27 0
40 9 13 8 34 15 48 15 20 0 23 4 19 23 -6 22 -31 57 -42 57 -3 0 -12 -9 -19
-20z"/>
<path d="M215 424 c-10 -11 -14 -25 -11 -40 7 -27 -43 -123 -121 -233 -59 -81
-65 -112 -28 -137 39 -25 62 -10 101 67 34 68 65 109 83 109 4 0 11 -32 15
-72 8 -92 33 -123 66 -83 10 12 10 28 1 78 -7 34 -14 70 -17 80 -4 12 0 17 15
17 28 0 48 35 57 97 5 44 4 54 -10 59 -24 9 -46 -14 -46 -51 0 -18 -6 -38 -14
-44 -12 -10 -16 -4 -24 33 -5 25 -8 62 -6 83 4 52 -27 70 -61 37z m28 -154 c3
-12 0 -20 -8 -20 -8 0 -11 8 -8 20 3 11 7 20 8 20 1 0 5 -9 8 -20z"/>
</g>
</svg>
